M48
; DRILL file {KiCad (5.1.7)-1} date 12/17/20 15:48:22
; FORMAT={-:-/ absolute / inch / decimal}
; #@! TF.CreationDate,2020-12-17T15:48:22-08:00
; #@! TF.GenerationSoftware,Kicad,Pcbnew,(5.1.7)-1
FMAT,2
INCH
T1C0.0157
T2C0.0300
T3C0.0390
T4C0.0394
T5C0.0433
T6C0.0591
T7C0.0591
T8C0.1575
%
G90
G05
T1
X0.2312Y-1.8444
X0.5067Y-1.784
X0.9623Y-2.9325
X1.0028Y-2.9721
X1.4442Y-2.3418
X3.3607Y-2.5353
X5.3471Y-2.3183
X5.9881Y-2.9641
X8.1863Y-3.0976
T2
X0.6Y-1.5
X0.6Y-1.6
X0.6Y-1.7
X0.6Y-1.8
T3
X8.25Y-1.45
X8.25Y-1.75
X4.75Y-1.5
X4.75Y-1.8
X3.35Y-1.4
X3.35Y-1.7
X8.15Y-1.4
X8.15Y-1.7
X7.35Y-1.6
X7.35Y-1.9
X2.55Y-1.6
X2.55Y-1.9
X2.45Y-1.55
X2.45Y-1.85
X5.45Y-1.55
X5.45Y-1.85
X5.95Y-1.5
X5.95Y-1.8
X10.65Y-1.45
X10.65Y-1.75
X4.65Y-1.45
X4.65Y-1.75
X5.15Y-1.4
X5.15Y-1.7
X7.95Y-1.6
X7.95Y-1.9
X9.65Y-1.55
X9.65Y-1.85
X3.75Y-1.6
X3.75Y-1.9
X2.95Y-1.5
X2.95Y-1.8
X7.25Y-1.55
X7.25Y-1.85
X8.35Y-1.5
X8.35Y-1.8
X7.05Y-1.45
X7.05Y-1.75
X7.55Y-1.4
X7.55Y-1.7
X2.85Y-1.44
X2.85Y-1.74
X2.15Y-1.4
X2.15Y-1.7
X6.95Y-1.4
X6.95Y-1.7
X4.55Y-1.4
X4.55Y-1.7
X9.15Y-1.6
X9.15Y-1.9
X3.65Y-1.55
X3.65Y-1.85
X10.05Y-1.45
X10.05Y-1.75
X6.55Y-1.5
X6.55Y-1.8
X9.55Y-1.5
X9.55Y-1.8
X2.35Y-1.5
X2.35Y-1.8
X9.45Y-1.45
X9.45Y-1.75
X5.35Y-1.5
X5.35Y-1.8
X5.75Y-1.4
X5.75Y-1.7
X9.95Y-1.4
X9.95Y-1.7
X9.05Y-1.55
X9.05Y-1.85
X3.15Y-1.6
X3.15Y-1.9
X10.35Y-1.6
X10.35Y-1.9
X10.15Y-1.5
X10.15Y-1.8
X8.55Y-1.6
X8.55Y-1.9
X4.25Y-1.55
X4.25Y-1.85
X7.15Y-1.5
X7.15Y-1.8
X3.55Y-1.5
X3.55Y-1.8
X3.45Y-1.45
X3.45Y-1.75
X5.25Y-1.45
X5.25Y-1.75
X8.75Y-1.4
X8.75Y-1.7
X2.75Y-1.4
X2.75Y-1.7
X2.25Y-1.45
X2.25Y-1.75
X10.85Y-1.55
X10.85Y-1.85
X10.95Y-1.6
X10.95Y-1.9
X8.45Y-1.55
X8.45Y-1.85
X4.35Y-1.6
X4.35Y-1.9
X4.85Y-1.55
X4.85Y-1.85
X7.65Y-1.45
X7.65Y-1.75
X4.15Y-1.5
X4.15Y-1.8
X4.05Y-1.45
X4.05Y-1.75
X6.45Y-1.45
X6.45Y-1.75
X9.35Y-1.4
X9.35Y-1.7
X10.55Y-1.4
X10.55Y-1.7
X3.05Y-1.55
X3.05Y-1.85
X6.05Y-1.55
X6.05Y-1.85
X4.95Y-1.6
X4.95Y-1.9
X6.15Y-1.6
X6.15Y-1.9
X7.85Y-1.55
X7.85Y-1.85
X7.75Y-1.5
X7.75Y-1.8
X5.85Y-1.45
X5.85Y-1.75
X8.85Y-1.45
X8.85Y-1.75
X6.35Y-1.4
X6.35Y-1.7
X3.95Y-1.4
X3.95Y-1.7
X5.55Y-1.6
X5.55Y-1.9
X10.25Y-1.55
X10.25Y-1.85
X6.75Y-1.6
X6.75Y-1.9
X9.75Y-1.6
X9.75Y-1.9
X10.75Y-1.5
X10.75Y-1.8
X6.65Y-1.55
X6.65Y-1.85
X8.95Y-1.5
X8.95Y-1.8
T4
X11.3516Y-1.3744
X11.3516Y-1.9453
X11.45Y-1.9453
X11.5484Y-1.3744
X11.5484Y-1.9453
T5
X-0.25Y-1.35
X-0.25Y-1.45
X-0.25Y-1.55
X-0.25Y-1.65
X-0.25Y-1.75
X-0.25Y-1.85
X-0.25Y-1.95
X-0.25Y-2.05
X-0.25Y-2.15
X-0.25Y-2.25
X-0.25Y-2.35
X-0.25Y-2.45
X-0.25Y-2.55
X-0.25Y-2.65
X-0.25Y-2.75
X-0.25Y-2.85
X-0.25Y-2.95
X-0.25Y-3.05
X-0.25Y-3.15
X-0.25Y-3.25
X-0.05Y-2.95
X-0.05Y-3.25
X0.05Y-2.65
X0.05Y-2.75
X0.05Y-2.85
X0.05Y-2.95
X0.05Y-3.25
X0.15Y-2.65
X0.15Y-2.75
X0.15Y-2.85
X0.15Y-2.95
X0.15Y-3.25
X0.35Y-1.35
X0.35Y-1.45
X0.35Y-1.55
X0.35Y-1.65
X0.35Y-1.75
X0.35Y-1.85
X0.35Y-1.95
X0.35Y-2.05
X0.35Y-2.15
X0.35Y-2.25
X0.35Y-2.35
X0.35Y-2.45
X0.35Y-2.55
X0.35Y-2.65
X0.35Y-2.75
X0.35Y-2.85
X0.35Y-2.95
X0.35Y-3.05
X0.35Y-3.15
X0.35Y-3.25
X-0.0397Y-3.3725
X-0.0397Y-3.6284
X0.1375Y-3.3725
X0.1375Y-3.6284
T6
X9.8113Y-3.3
X10.0613Y-3.2
X10.9386Y-3.3
X11.1886Y-3.2
X4.1863Y-4.05
X4.4363Y-3.95
X3.8113Y-3.3
X4.0613Y-3.2
X2.3113Y-2.3625
X2.5613Y-2.2625
X4.5613Y-3.3
X4.8113Y-3.2
X5.6863Y-2.3625
X5.9363Y-2.2625
X3.0613Y-2.3625
X3.3113Y-2.2625
X9.25Y-5.55
X9.5Y-5.45
X7.0Y-5.55
X7.25Y-5.45
X9.6275Y-4.8
X9.8775Y-4.7
X8.3113Y-3.3
X8.5613Y-3.2
X2.6863Y-4.05
X2.9363Y-3.95
X1.9363Y-4.05
X2.1863Y-3.95
X1.5613Y-3.3
X1.8113Y-3.2
X3.0613Y-3.3
X3.3113Y-3.2
X10.2825Y-6.3
X10.5325Y-6.2
X2.5Y-5.55
X2.75Y-5.45
X8.5Y-5.55
X8.75Y-5.45
X0.8113Y-2.3625
X1.0613Y-2.2625
X6.6275Y-4.8
X6.8775Y-4.7
X4.3775Y-4.8
X4.6275Y-4.7
X9.4363Y-4.05
X9.6863Y-3.95
X7.9363Y-4.05
X8.1863Y-3.95
X3.4363Y-4.05
X3.6863Y-3.95
X10.5613Y-2.3625
X10.8113Y-2.2625
X2.3113Y-3.3
X2.5613Y-3.2
X3.8113Y-2.3625
X4.0613Y-2.2625
X4.0Y-5.55
X4.25Y-5.45
X8.1275Y-4.8
X8.3775Y-4.7
X5.8775Y-4.8
X6.1275Y-4.7
X5.1275Y-4.8
X5.3775Y-4.7
X11.1262Y-4.0501
X11.3762Y-3.9501
X6.4363Y-4.05
X6.6863Y-3.95
X0.9988Y-4.05
X1.2488Y-3.95
X6.0613Y-3.3
X6.3113Y-3.2
X7.1863Y-2.3625
X7.4363Y-2.2625
X11.22Y-6.3
X11.47Y-6.2
X0.8113Y-3.3
X1.0613Y-3.2
X8.8775Y-4.8
X9.1275Y-4.7
X5.5Y-5.55
X5.75Y-5.45
X3.6275Y-4.8
X3.8775Y-4.7
X10.1863Y-4.05
X10.4363Y-3.95
X5.6863Y-4.05
X5.9363Y-3.95
X7.9363Y-2.3625
X8.1863Y-2.2625
X7.5613Y-3.3
X7.8113Y-3.2
X9.8113Y-2.3625
X10.0613Y-2.2625
X7.75Y-5.55
X8.0Y-5.45
X9.345Y-6.3
X9.595Y-6.2
X1.8425Y-6.3
X2.0925Y-6.2
X6.25Y-5.55
X6.5Y-5.45
X1.0925Y-4.8
X1.3425Y-4.7
X8.6863Y-4.05
X8.9363Y-3.95
X4.9363Y-4.05
X5.1863Y-3.95
X6.4363Y-2.3625
X6.6863Y-2.2625
X9.0613Y-2.3625
X9.3113Y-2.2625
X4.5613Y-2.3625
X4.8113Y-2.2625
X1.28Y-5.55
X1.53Y-5.45
X3.25Y-5.55
X3.5Y-5.45
X5.5925Y-6.3
X5.8425Y-6.2
X0.905Y-6.3
X1.155Y-6.2
X2.8775Y-4.8
X3.1275Y-4.7
X2.1275Y-4.8
X2.3775Y-4.7
X7.1863Y-4.05
X7.4363Y-3.95
X9.0613Y-3.3
X9.3113Y-3.2
X5.3113Y-3.3
X5.5613Y-3.2
X6.8113Y-3.3
X7.0613Y-3.2
X11.3113Y-2.3625
X11.5613Y-2.2625
X4.75Y-5.55
X5.0Y-5.45
X8.4075Y-6.3
X8.6575Y-6.2
X2.78Y-6.3
X3.03Y-6.2
X10.6575Y-5.55
X10.9075Y-5.45
X7.3775Y-4.8
X7.6275Y-4.7
X10.845Y-4.8
X11.095Y-4.7
T8
X8.4613Y-3.4
X2.8363Y-4.15
X2.0863Y-4.15
X1.7113Y-3.4
X3.2113Y-3.4
X10.4325Y-6.4
X2.65Y-5.65
X8.65Y-5.65
X0.9613Y-2.4625
X6.7775Y-4.9
X4.5275Y-4.9
X9.5863Y-4.15
X8.0863Y-4.15
X3.5863Y-4.15
X10.7113Y-2.4625
X2.4613Y-3.4
X3.9613Y-2.4625
X4.15Y-5.65
X8.2775Y-4.9
X6.0275Y-4.9
X5.2775Y-4.9
X11.2762Y-4.1501
X6.5863Y-4.15
X1.1488Y-4.15
X6.2113Y-3.4
X7.3363Y-2.4625
X11.37Y-6.4
X0.9613Y-3.4
X9.0275Y-4.9
X5.65Y-5.65
X3.7775Y-4.9
X10.3363Y-4.15
X5.8363Y-4.15
X8.0863Y-2.4625
X7.7113Y-3.4
X9.9613Y-2.4625
X7.9Y-5.65
X9.495Y-6.4
X1.9925Y-6.4
X6.4Y-5.65
X1.2425Y-4.9
X8.8363Y-4.15
X5.0863Y-4.15
X6.5863Y-2.4625
X9.2113Y-2.4625
X4.7113Y-2.4625
X1.43Y-5.65
X3.4Y-5.65
X5.7425Y-6.4
X1.055Y-6.4
X3.0275Y-4.9
X2.2775Y-4.9
X7.3363Y-4.15
X9.2113Y-3.4
X5.4613Y-3.4
X6.9613Y-3.4
X11.4613Y-2.4625
X4.9Y-5.65
X8.5575Y-6.4
X2.93Y-6.4
X10.8075Y-5.65
X7.5275Y-4.9
X10.995Y-4.9
X9.9613Y-3.4
X11.0886Y-3.4
X4.3363Y-4.15
X3.9613Y-3.4
X2.4613Y-2.4625
X4.7113Y-3.4
X5.8363Y-2.4625
X3.2113Y-2.4625
X9.4Y-5.65
X7.15Y-5.65
X9.7775Y-4.9
T7
G00X11.2295Y-1.6756
M15
G01X11.2295Y-1.6244
M16
G05
G00X11.6705Y-1.6756
M15
G01X11.6705Y-1.6244
M16
G05
T0
M30
