%TF.GenerationSoftware,KiCad,Pcbnew,(5.1.7)-1*%
%TF.CreationDate,2020-12-17T15:46:30-08:00*%
%TF.ProjectId,memers and dreamers,6d656d65-7273-4206-916e-642064726561,rev?*%
%TF.SameCoordinates,Original*%
%TF.FileFunction,Soldermask,Top*%
%TF.FilePolarity,Negative*%
%FSLAX46Y46*%
G04 Gerber Fmt 4.6, Leading zero omitted, Abs format (unit mm)*
G04 Created by KiCad (PCBNEW (5.1.7)-1) date 2020-12-17 15:46:30*
%MOMM*%
%LPD*%
G01*
G04 APERTURE LIST*
%ADD10C,1.600000*%
%ADD11R,1.600000X1.600000*%
%ADD12C,2.200000*%
%ADD13C,4.000000*%
%ADD14C,1.651000*%
%ADD15R,1.651000X1.651000*%
%ADD16C,2.000000*%
%ADD17R,2.000000X3.200000*%
%ADD18R,2.000000X2.000000*%
%ADD19C,1.524000*%
G04 APERTURE END LIST*
D10*
%TO.C,U2*%
X-6350000Y-54610000D03*
X-6350000Y-57150000D03*
X-6350000Y-59690000D03*
X-6350000Y-52070000D03*
X-6350000Y-49530000D03*
X-6350000Y-46990000D03*
X-6350000Y-44450000D03*
X-6350000Y-41910000D03*
X-6350000Y-39370000D03*
X-6350000Y-36830000D03*
D11*
X-6350000Y-34290000D03*
D10*
X-6350000Y-62230000D03*
X-6350000Y-64770000D03*
X-6350000Y-67310000D03*
X-6350000Y-69850000D03*
X-6350000Y-72390000D03*
X-6350000Y-74930000D03*
X-6350000Y-77470000D03*
X-6350000Y-80010000D03*
X-6350000Y-82550000D03*
X-1270000Y-82550000D03*
X1270000Y-82550000D03*
X3810000Y-82550000D03*
X8890000Y-82550000D03*
X8890000Y-80010000D03*
X8890000Y-77470000D03*
X8890000Y-74930000D03*
X8890000Y-72390000D03*
X8890000Y-69850000D03*
X8890000Y-67310000D03*
X8890000Y-64770000D03*
X8890000Y-62230000D03*
X8890000Y-59690000D03*
X8890000Y-57150000D03*
X8890000Y-54610000D03*
X8890000Y-52070000D03*
X8890000Y-49530000D03*
X8890000Y-46990000D03*
X8890000Y-44450000D03*
X8890000Y-41910000D03*
X8890000Y-39370000D03*
X8890000Y-36830000D03*
X8890000Y-34290000D03*
X3810000Y-67310000D03*
X3810000Y-69850000D03*
X3810000Y-72390000D03*
X3810000Y-74930000D03*
X1270000Y-67310000D03*
X1270000Y-69850000D03*
X1270000Y-72390000D03*
X1270000Y-74930000D03*
X-1270000Y-74930000D03*
%TD*%
D12*
%TO.C,SW14*%
X26957020Y-81280000D03*
X20607020Y-83820000D03*
D13*
X24417020Y-86360000D03*
%TD*%
D12*
%TO.C,SW1*%
X26957020Y-57467500D03*
X20607020Y-60007500D03*
D13*
X24417020Y-62547500D03*
%TD*%
D14*
%TO.C,D75*%
X278130000Y-48260000D03*
D15*
X278130000Y-40640000D03*
%TD*%
D14*
%TO.C,D74*%
X262890000Y-48260000D03*
D15*
X262890000Y-40640000D03*
%TD*%
D14*
%TO.C,D73*%
X247650000Y-48260000D03*
D15*
X247650000Y-40640000D03*
%TD*%
D14*
%TO.C,D72*%
X217170000Y-48260000D03*
D15*
X217170000Y-40640000D03*
%TD*%
D14*
%TO.C,D71*%
X156210000Y-48260000D03*
D15*
X156210000Y-40640000D03*
%TD*%
D14*
%TO.C,D70*%
X95250000Y-48260000D03*
D15*
X95250000Y-40640000D03*
%TD*%
D14*
%TO.C,D69*%
X80010000Y-48260000D03*
D15*
X80010000Y-40640000D03*
%TD*%
%TO.C,D68*%
X64770000Y-40640000D03*
D14*
X64770000Y-48260000D03*
%TD*%
%TO.C,D67*%
X260350000Y-46990000D03*
D15*
X260350000Y-39370000D03*
%TD*%
D14*
%TO.C,D66*%
X232410000Y-48260000D03*
D15*
X232410000Y-40640000D03*
%TD*%
D14*
%TO.C,D65*%
X214630000Y-46990000D03*
D15*
X214630000Y-39370000D03*
%TD*%
D14*
%TO.C,D64*%
X201930000Y-48260000D03*
D15*
X201930000Y-40640000D03*
%TD*%
D14*
%TO.C,D63*%
X186690000Y-48260000D03*
D15*
X186690000Y-40640000D03*
%TD*%
D14*
%TO.C,D62*%
X171450000Y-48260000D03*
D15*
X171450000Y-40640000D03*
%TD*%
D14*
%TO.C,D61*%
X153670000Y-46990000D03*
D15*
X153670000Y-39370000D03*
%TD*%
D14*
%TO.C,D60*%
X140970000Y-48260000D03*
D15*
X140970000Y-40640000D03*
%TD*%
D14*
%TO.C,D59*%
X125730000Y-48260000D03*
D15*
X125730000Y-40640000D03*
%TD*%
D14*
%TO.C,D58*%
X110490000Y-48260000D03*
D15*
X110490000Y-40640000D03*
%TD*%
D14*
%TO.C,D57*%
X92710000Y-46990000D03*
D15*
X92710000Y-39370000D03*
%TD*%
D14*
%TO.C,D56*%
X77470000Y-46990000D03*
D15*
X77470000Y-39370000D03*
%TD*%
D14*
%TO.C,D55*%
X275590000Y-46990000D03*
D15*
X275590000Y-39370000D03*
%TD*%
D14*
%TO.C,D54*%
X257810000Y-45720000D03*
D15*
X257810000Y-38100000D03*
%TD*%
D14*
%TO.C,D53*%
X245110000Y-46990000D03*
D15*
X245110000Y-39370000D03*
%TD*%
D14*
%TO.C,D52*%
X229870000Y-46990000D03*
D15*
X229870000Y-39370000D03*
%TD*%
D14*
%TO.C,D51*%
X212090000Y-45720000D03*
D15*
X212090000Y-38100000D03*
%TD*%
D14*
%TO.C,D50*%
X199390000Y-46990000D03*
D15*
X199390000Y-39370000D03*
%TD*%
D14*
%TO.C,D49*%
X184150000Y-46990000D03*
D15*
X184150000Y-39370000D03*
%TD*%
D14*
%TO.C,D48*%
X168910000Y-46990000D03*
D15*
X168910000Y-39370000D03*
%TD*%
D14*
%TO.C,D47*%
X151130000Y-45720000D03*
D15*
X151130000Y-38100000D03*
%TD*%
D14*
%TO.C,D46*%
X138430000Y-46990000D03*
D15*
X138430000Y-39370000D03*
%TD*%
D14*
%TO.C,D45*%
X123190000Y-46990000D03*
D15*
X123190000Y-39370000D03*
%TD*%
D14*
%TO.C,D44*%
X107950000Y-46990000D03*
D15*
X107950000Y-39370000D03*
%TD*%
D14*
%TO.C,D43*%
X74930000Y-45720000D03*
D15*
X74930000Y-38100000D03*
%TD*%
%TO.C,D42*%
X62230000Y-39370000D03*
D14*
X62230000Y-46990000D03*
%TD*%
%TO.C,D41*%
X273050000Y-45720000D03*
D15*
X273050000Y-38100000D03*
%TD*%
D14*
%TO.C,D40*%
X255270000Y-44450000D03*
D15*
X255270000Y-36830000D03*
%TD*%
D14*
%TO.C,D39*%
X242570000Y-45720000D03*
D15*
X242570000Y-38100000D03*
%TD*%
D14*
%TO.C,D38*%
X227330000Y-45720000D03*
D15*
X227330000Y-38100000D03*
%TD*%
D14*
%TO.C,D37*%
X196850000Y-45720000D03*
D15*
X196850000Y-38100000D03*
%TD*%
D14*
%TO.C,D36*%
X194310000Y-44450000D03*
D15*
X194310000Y-36830000D03*
%TD*%
D14*
%TO.C,D35*%
X181610000Y-45720000D03*
D15*
X181610000Y-38100000D03*
%TD*%
D14*
%TO.C,D34*%
X166370000Y-45720000D03*
D15*
X166370000Y-38100000D03*
%TD*%
D14*
%TO.C,D33*%
X135890000Y-45720000D03*
D15*
X135890000Y-38100000D03*
%TD*%
D14*
%TO.C,D32*%
X120650000Y-45720000D03*
D15*
X120650000Y-38100000D03*
%TD*%
D14*
%TO.C,D31*%
X105410000Y-45720000D03*
D15*
X105410000Y-38100000D03*
%TD*%
D14*
%TO.C,D30*%
X90170000Y-45720000D03*
D15*
X90170000Y-38100000D03*
%TD*%
D14*
%TO.C,D29*%
X72390000Y-44196000D03*
D15*
X72390000Y-36576000D03*
%TD*%
%TO.C,D28*%
X59690000Y-38100000D03*
D14*
X59690000Y-45720000D03*
%TD*%
%TO.C,D27*%
X270510000Y-44450000D03*
D15*
X270510000Y-36830000D03*
%TD*%
D14*
%TO.C,D26*%
X240030000Y-44450000D03*
D15*
X240030000Y-36830000D03*
%TD*%
D14*
%TO.C,D25*%
X224790000Y-44450000D03*
D15*
X224790000Y-36830000D03*
%TD*%
D14*
%TO.C,D24*%
X209550000Y-44450000D03*
D15*
X209550000Y-36830000D03*
%TD*%
D14*
%TO.C,D23*%
X191770000Y-43180000D03*
D15*
X191770000Y-35560000D03*
%TD*%
D14*
%TO.C,D22*%
X179070000Y-44450000D03*
D15*
X179070000Y-36830000D03*
%TD*%
D14*
%TO.C,D21*%
X163830000Y-44450000D03*
D15*
X163830000Y-36830000D03*
%TD*%
D14*
%TO.C,D20*%
X148590000Y-44450000D03*
D15*
X148590000Y-36830000D03*
%TD*%
D14*
%TO.C,D19*%
X133350000Y-44450000D03*
D15*
X133350000Y-36830000D03*
%TD*%
D14*
%TO.C,D18*%
X118110000Y-44450000D03*
D15*
X118110000Y-36830000D03*
%TD*%
D14*
%TO.C,D17*%
X102870000Y-44450000D03*
D15*
X102870000Y-36830000D03*
%TD*%
D14*
%TO.C,D16*%
X87630000Y-44450000D03*
D15*
X87630000Y-36830000D03*
%TD*%
D14*
%TO.C,D15*%
X69850000Y-43180000D03*
D15*
X69850000Y-35560000D03*
%TD*%
%TO.C,D14*%
X57150000Y-36830000D03*
D14*
X57150000Y-44450000D03*
%TD*%
%TO.C,D13*%
X267970000Y-43180000D03*
D15*
X267970000Y-35560000D03*
%TD*%
D14*
%TO.C,D12*%
X252730000Y-43180000D03*
D15*
X252730000Y-35560000D03*
%TD*%
D14*
%TO.C,D11*%
X237490000Y-43180000D03*
D15*
X237490000Y-35560000D03*
%TD*%
D14*
%TO.C,D10*%
X222250000Y-43180000D03*
D15*
X222250000Y-35560000D03*
%TD*%
D14*
%TO.C,D9*%
X207010000Y-43180000D03*
D15*
X207010000Y-35560000D03*
%TD*%
D14*
%TO.C,D8*%
X176530000Y-43180000D03*
D15*
X176530000Y-35560000D03*
%TD*%
D14*
%TO.C,D7*%
X161290000Y-43180000D03*
D15*
X161290000Y-35560000D03*
%TD*%
D14*
%TO.C,D6*%
X146050000Y-43180000D03*
D15*
X146050000Y-35560000D03*
%TD*%
D14*
%TO.C,D5*%
X130810000Y-43180000D03*
D15*
X130810000Y-35560000D03*
%TD*%
D14*
%TO.C,D4*%
X115570000Y-43180000D03*
D15*
X115570000Y-35560000D03*
%TD*%
D14*
%TO.C,D3*%
X100330000Y-43180000D03*
D15*
X100330000Y-35560000D03*
%TD*%
D14*
%TO.C,D2*%
X85090000Y-43180000D03*
D15*
X85090000Y-35560000D03*
%TD*%
%TO.C,D1*%
X54610000Y-35560000D03*
D14*
X54610000Y-43180000D03*
%TD*%
D13*
%TO.C,SW75*%
X288798000Y-162560000D03*
D12*
X284988000Y-160020000D03*
X291338000Y-157480000D03*
%TD*%
D13*
%TO.C,SW74*%
X264985500Y-162560000D03*
D12*
X261175500Y-160020000D03*
X267525500Y-157480000D03*
%TD*%
D13*
%TO.C,SW73*%
X241173000Y-162560000D03*
D12*
X237363000Y-160020000D03*
X243713000Y-157480000D03*
%TD*%
D13*
%TO.C,SW72*%
X217360500Y-162560000D03*
D12*
X213550500Y-160020000D03*
X219900500Y-157480000D03*
%TD*%
%TO.C,SW2*%
X65057020Y-57467500D03*
X58707020Y-60007500D03*
D13*
X62517020Y-62547500D03*
%TD*%
D12*
%TO.C,SW3*%
X84107020Y-57467500D03*
X77757020Y-60007500D03*
D13*
X81567020Y-62547500D03*
%TD*%
%TO.C,SW4*%
X100617020Y-62547500D03*
D12*
X96807020Y-60007500D03*
X103157020Y-57467500D03*
%TD*%
%TO.C,SW5*%
X122207020Y-57467500D03*
X115857020Y-60007500D03*
D13*
X119667020Y-62547500D03*
%TD*%
%TO.C,SW6*%
X148242020Y-62547500D03*
D12*
X144432020Y-60007500D03*
X150782020Y-57467500D03*
%TD*%
%TO.C,SW7*%
X169832020Y-57467500D03*
X163482020Y-60007500D03*
D13*
X167292020Y-62547500D03*
%TD*%
%TO.C,SW8*%
X186342020Y-62547500D03*
D12*
X182532020Y-60007500D03*
X188882020Y-57467500D03*
%TD*%
D13*
%TO.C,SW9*%
X205392020Y-62547500D03*
D12*
X201582020Y-60007500D03*
X207932020Y-57467500D03*
%TD*%
D13*
%TO.C,SW10*%
X233967020Y-62547500D03*
D12*
X230157020Y-60007500D03*
X236507020Y-57467500D03*
%TD*%
%TO.C,SW11*%
X255557020Y-57467500D03*
X249207020Y-60007500D03*
D13*
X253017020Y-62547500D03*
%TD*%
%TO.C,SW12*%
X272067020Y-62547500D03*
D12*
X268257020Y-60007500D03*
X274607020Y-57467500D03*
%TD*%
%TO.C,SW13*%
X293657020Y-57467500D03*
X287307020Y-60007500D03*
D13*
X291117020Y-62547500D03*
%TD*%
%TO.C,SW15*%
X43467020Y-86360000D03*
D12*
X39657020Y-83820000D03*
X46007020Y-81280000D03*
%TD*%
D13*
%TO.C,SW16*%
X62517020Y-86360000D03*
D12*
X58707020Y-83820000D03*
X65057020Y-81280000D03*
%TD*%
D13*
%TO.C,SW17*%
X81567020Y-86360000D03*
D12*
X77757020Y-83820000D03*
X84107020Y-81280000D03*
%TD*%
%TO.C,SW18*%
X103157020Y-81280000D03*
X96807020Y-83820000D03*
D13*
X100617020Y-86360000D03*
%TD*%
%TO.C,SW19*%
X119667020Y-86360000D03*
D12*
X115857020Y-83820000D03*
X122207020Y-81280000D03*
%TD*%
%TO.C,SW20*%
X141257020Y-81280000D03*
X134907020Y-83820000D03*
D13*
X138717020Y-86360000D03*
%TD*%
D12*
%TO.C,SW21*%
X160307020Y-81280000D03*
X153957020Y-83820000D03*
D13*
X157767020Y-86360000D03*
%TD*%
%TO.C,SW22*%
X176817020Y-86360000D03*
D12*
X173007020Y-83820000D03*
X179357020Y-81280000D03*
%TD*%
D13*
%TO.C,SW23*%
X195867020Y-86360000D03*
D12*
X192057020Y-83820000D03*
X198407020Y-81280000D03*
%TD*%
%TO.C,SW24*%
X217457020Y-81280000D03*
X211107020Y-83820000D03*
D13*
X214917020Y-86360000D03*
%TD*%
D12*
%TO.C,SW25*%
X236507020Y-81280000D03*
X230157020Y-83820000D03*
D13*
X233967020Y-86360000D03*
%TD*%
D12*
%TO.C,SW26*%
X255557020Y-81280000D03*
X249207020Y-83820000D03*
D13*
X253017020Y-86360000D03*
%TD*%
D12*
%TO.C,SW27*%
X284190440Y-81280000D03*
X277840440Y-83820000D03*
D13*
X281650440Y-86360000D03*
%TD*%
D12*
%TO.C,SW28*%
X31719520Y-100330000D03*
X25369520Y-102870000D03*
D13*
X29179520Y-105410000D03*
%TD*%
D12*
%TO.C,SW29*%
X55532020Y-100330000D03*
X49182020Y-102870000D03*
D13*
X52992020Y-105410000D03*
%TD*%
%TO.C,SW30*%
X72042020Y-105410000D03*
D12*
X68232020Y-102870000D03*
X74582020Y-100330000D03*
%TD*%
D13*
%TO.C,SW31*%
X91092020Y-105410000D03*
D12*
X87282020Y-102870000D03*
X93632020Y-100330000D03*
%TD*%
D13*
%TO.C,SW32*%
X110142020Y-105410000D03*
D12*
X106332020Y-102870000D03*
X112682020Y-100330000D03*
%TD*%
D13*
%TO.C,SW33*%
X129192020Y-105410000D03*
D12*
X125382020Y-102870000D03*
X131732020Y-100330000D03*
%TD*%
D13*
%TO.C,SW34*%
X148242020Y-105410000D03*
D12*
X144432020Y-102870000D03*
X150782020Y-100330000D03*
%TD*%
%TO.C,SW35*%
X169832020Y-100330000D03*
X163482020Y-102870000D03*
D13*
X167292020Y-105410000D03*
%TD*%
%TO.C,SW36*%
X186342020Y-105410000D03*
D12*
X182532020Y-102870000D03*
X188882020Y-100330000D03*
%TD*%
D13*
%TO.C,SW37*%
X205392020Y-105410000D03*
D12*
X201582020Y-102870000D03*
X207932020Y-100330000D03*
%TD*%
%TO.C,SW38*%
X226982020Y-100330000D03*
X220632020Y-102870000D03*
D13*
X224442020Y-105410000D03*
%TD*%
D12*
%TO.C,SW39*%
X246032020Y-100330000D03*
X239682020Y-102870000D03*
D13*
X243492020Y-105410000D03*
%TD*%
D12*
%TO.C,SW40*%
X265082020Y-100330000D03*
X258732020Y-102870000D03*
D13*
X262542020Y-105410000D03*
%TD*%
%TO.C,SW41*%
X286415480Y-105412540D03*
D12*
X282605480Y-102872540D03*
X288955480Y-100332540D03*
%TD*%
%TO.C,SW42*%
X34099500Y-119380000D03*
X27749500Y-121920000D03*
D13*
X31559500Y-124460000D03*
%TD*%
%TO.C,SW43*%
X57848500Y-124460000D03*
D12*
X54038500Y-121920000D03*
X60388500Y-119380000D03*
%TD*%
%TO.C,SW44*%
X79438500Y-119380000D03*
X73088500Y-121920000D03*
D13*
X76898500Y-124460000D03*
%TD*%
D12*
%TO.C,SW45*%
X98488500Y-119380000D03*
X92138500Y-121920000D03*
D13*
X95948500Y-124460000D03*
%TD*%
D12*
%TO.C,SW46*%
X117538500Y-119380000D03*
X111188500Y-121920000D03*
D13*
X114998500Y-124460000D03*
%TD*%
D12*
%TO.C,SW47*%
X136588500Y-119380000D03*
X130238500Y-121920000D03*
D13*
X134048500Y-124460000D03*
%TD*%
%TO.C,SW48*%
X153098500Y-124460000D03*
D12*
X149288500Y-121920000D03*
X155638500Y-119380000D03*
%TD*%
D13*
%TO.C,SW49*%
X172148500Y-124460000D03*
D12*
X168338500Y-121920000D03*
X174688500Y-119380000D03*
%TD*%
%TO.C,SW50*%
X193738500Y-119380000D03*
X187388500Y-121920000D03*
D13*
X191198500Y-124460000D03*
%TD*%
D12*
%TO.C,SW51*%
X212788500Y-119380000D03*
X206438500Y-121920000D03*
D13*
X210248500Y-124460000D03*
%TD*%
%TO.C,SW52*%
X229298500Y-124460000D03*
D12*
X225488500Y-121920000D03*
X231838500Y-119380000D03*
%TD*%
D13*
%TO.C,SW53*%
X248348500Y-124460000D03*
D12*
X244538500Y-121920000D03*
X250888500Y-119380000D03*
%TD*%
D13*
%TO.C,SW54*%
X279273000Y-124460000D03*
D12*
X275463000Y-121920000D03*
X281813000Y-119380000D03*
%TD*%
D16*
%TO.C,SW55*%
X293330000Y-34910000D03*
X288330000Y-34910000D03*
D17*
X296430000Y-41910000D03*
X285230000Y-41910000D03*
D16*
X293330000Y-49410000D03*
X290830000Y-49410000D03*
D18*
X288330000Y-49410000D03*
%TD*%
D12*
%TO.C,SW56*%
X38862000Y-138430000D03*
X32512000Y-140970000D03*
D13*
X36322000Y-143510000D03*
%TD*%
%TO.C,SW57*%
X67310000Y-143510000D03*
D12*
X63500000Y-140970000D03*
X69850000Y-138430000D03*
%TD*%
%TO.C,SW58*%
X88900000Y-138430000D03*
X82550000Y-140970000D03*
D13*
X86360000Y-143510000D03*
%TD*%
D12*
%TO.C,SW59*%
X107950000Y-138430000D03*
X101600000Y-140970000D03*
D13*
X105410000Y-143510000D03*
%TD*%
%TO.C,SW60*%
X124460000Y-143510000D03*
D12*
X120650000Y-140970000D03*
X127000000Y-138430000D03*
%TD*%
D13*
%TO.C,SW61*%
X143510000Y-143510000D03*
D12*
X139700000Y-140970000D03*
X146050000Y-138430000D03*
%TD*%
%TO.C,SW62*%
X165100000Y-138430000D03*
X158750000Y-140970000D03*
D13*
X162560000Y-143510000D03*
%TD*%
%TO.C,SW63*%
X181610000Y-143510000D03*
D12*
X177800000Y-140970000D03*
X184150000Y-138430000D03*
%TD*%
%TO.C,SW64*%
X203200000Y-138430000D03*
X196850000Y-140970000D03*
D13*
X200660000Y-143510000D03*
%TD*%
D12*
%TO.C,SW65*%
X222250000Y-138430000D03*
X215900000Y-140970000D03*
D13*
X219710000Y-143510000D03*
%TD*%
%TO.C,SW66*%
X238760000Y-143510000D03*
D12*
X234950000Y-140970000D03*
X241300000Y-138430000D03*
%TD*%
%TO.C,SW67*%
X277050500Y-138430000D03*
X270700500Y-140970000D03*
D13*
X274510500Y-143510000D03*
%TD*%
D12*
%TO.C,SW68*%
X29337000Y-157480000D03*
X22987000Y-160020000D03*
D13*
X26797000Y-162560000D03*
%TD*%
%TO.C,SW69*%
X50609500Y-162560000D03*
D12*
X46799500Y-160020000D03*
X53149500Y-157480000D03*
%TD*%
%TO.C,SW70*%
X76962000Y-157480000D03*
X70612000Y-160020000D03*
D13*
X74422000Y-162560000D03*
%TD*%
D12*
%TO.C,SW71*%
X148399500Y-157480000D03*
X142049500Y-160020000D03*
D13*
X145859500Y-162560000D03*
%TD*%
D16*
%TO.C,SW76*%
X-1007500Y-85661500D03*
X3492500Y-85661500D03*
X-1007500Y-92161500D03*
X3492500Y-92161500D03*
%TD*%
D19*
%TO.C,U1*%
X15240000Y-38100000D03*
X15240000Y-40640000D03*
X15240000Y-43180000D03*
X15240000Y-45720000D03*
%TD*%
M02*
