%TF.GenerationSoftware,KiCad,Pcbnew,(5.1.7)-1*%
%TF.CreationDate,2020-12-17T15:46:30-08:00*%
%TF.ProjectId,memers and dreamers,6d656d65-7273-4206-916e-642064726561,rev?*%
%TF.SameCoordinates,Original*%
%TF.FileFunction,Copper,L2,Bot*%
%TF.FilePolarity,Positive*%
%FSLAX46Y46*%
G04 Gerber Fmt 4.6, Leading zero omitted, Abs format (unit mm)*
G04 Created by KiCad (PCBNEW (5.1.7)-1) date 2020-12-17 15:46:30*
%MOMM*%
%LPD*%
G01*
G04 APERTURE LIST*
%TA.AperFunction,ComponentPad*%
%ADD10C,1.600000*%
%TD*%
%TA.AperFunction,ComponentPad*%
%ADD11R,1.600000X1.600000*%
%TD*%
%TA.AperFunction,ComponentPad*%
%ADD12C,2.200000*%
%TD*%
%TA.AperFunction,ComponentPad*%
%ADD13C,1.651000*%
%TD*%
%TA.AperFunction,ComponentPad*%
%ADD14R,1.651000X1.651000*%
%TD*%
%TA.AperFunction,ComponentPad*%
%ADD15C,2.000000*%
%TD*%
%TA.AperFunction,WasherPad*%
%ADD16R,2.000000X3.200000*%
%TD*%
%TA.AperFunction,ComponentPad*%
%ADD17R,2.000000X2.000000*%
%TD*%
%TA.AperFunction,ComponentPad*%
%ADD18C,1.524000*%
%TD*%
%TA.AperFunction,ViaPad*%
%ADD19C,0.800000*%
%TD*%
%TA.AperFunction,Conductor*%
%ADD20C,0.250000*%
%TD*%
G04 APERTURE END LIST*
D10*
%TO.P,U2,9*%
%TO.N,Net-(U2-Pad9)*%
X-6350000Y-54610000D03*
%TO.P,U2,10*%
%TO.N,Net-(U2-Pad10)*%
X-6350000Y-57150000D03*
%TO.P,U2,11*%
%TO.N,Net-(U2-Pad11)*%
X-6350000Y-59690000D03*
%TO.P,U2,8*%
%TO.N,Net-(U2-Pad8)*%
X-6350000Y-52070000D03*
%TO.P,U2,7*%
%TO.N,Net-(U2-Pad7)*%
X-6350000Y-49530000D03*
%TO.P,U2,6*%
%TO.N,Net-(U2-Pad6)*%
X-6350000Y-46990000D03*
%TO.P,U2,5*%
%TO.N,Net-(U2-Pad5)*%
X-6350000Y-44450000D03*
%TO.P,U2,4*%
%TO.N,SDA*%
X-6350000Y-41910000D03*
%TO.P,U2,3*%
%TO.N,SCL*%
X-6350000Y-39370000D03*
%TO.P,U2,2*%
%TO.N,Net-(U2-Pad2)*%
X-6350000Y-36830000D03*
D11*
%TO.P,U2,1*%
%TO.N,Net-(U2-Pad1)*%
X-6350000Y-34290000D03*
D10*
%TO.P,U2,12*%
%TO.N,Net-(U2-Pad12)*%
X-6350000Y-62230000D03*
%TO.P,U2,13*%
%TO.N,Row0*%
X-6350000Y-64770000D03*
%TO.P,U2,14*%
%TO.N,Row1*%
X-6350000Y-67310000D03*
%TO.P,U2,15*%
%TO.N,Row2*%
X-6350000Y-69850000D03*
%TO.P,U2,16*%
%TO.N,Row3*%
X-6350000Y-72390000D03*
%TO.P,U2,17*%
%TO.N,Row4*%
X-6350000Y-74930000D03*
%TO.P,U2,18*%
%TO.N,Row5*%
X-6350000Y-77470000D03*
%TO.P,U2,19*%
%TO.N,EncA*%
X-6350000Y-80010000D03*
%TO.P,U2,20*%
%TO.N,EncB*%
X-6350000Y-82550000D03*
%TO.P,U2,21*%
%TO.N,+5V*%
X-1270000Y-82550000D03*
%TO.P,U2,22*%
%TO.N,GND*%
X1270000Y-82550000D03*
%TO.P,U2,23*%
%TO.N,Reset*%
X3810000Y-82550000D03*
%TO.P,U2,24*%
%TO.N,Net-(U2-Pad24)*%
X8890000Y-82550000D03*
%TO.P,U2,25*%
%TO.N,Net-(U2-Pad25)*%
X8890000Y-80010000D03*
%TO.P,U2,26*%
%TO.N,Col14*%
X8890000Y-77470000D03*
%TO.P,U2,27*%
%TO.N,Col13*%
X8890000Y-74930000D03*
%TO.P,U2,28*%
%TO.N,Col12*%
X8890000Y-72390000D03*
%TO.P,U2,29*%
%TO.N,Col11*%
X8890000Y-69850000D03*
%TO.P,U2,30*%
%TO.N,Col10*%
X8890000Y-67310000D03*
%TO.P,U2,31*%
%TO.N,Col9*%
X8890000Y-64770000D03*
%TO.P,U2,32*%
%TO.N,Net-(U2-Pad32)*%
X8890000Y-62230000D03*
%TO.P,U2,33*%
%TO.N,GND*%
X8890000Y-59690000D03*
%TO.P,U2,34*%
%TO.N,Col8*%
X8890000Y-57150000D03*
%TO.P,U2,35*%
%TO.N,Col7*%
X8890000Y-54610000D03*
%TO.P,U2,36*%
%TO.N,Col6*%
X8890000Y-52070000D03*
%TO.P,U2,37*%
%TO.N,Col5*%
X8890000Y-49530000D03*
%TO.P,U2,38*%
%TO.N,Col4*%
X8890000Y-46990000D03*
%TO.P,U2,39*%
%TO.N,Col3*%
X8890000Y-44450000D03*
%TO.P,U2,40*%
%TO.N,Col2*%
X8890000Y-41910000D03*
%TO.P,U2,41*%
%TO.N,Col1*%
X8890000Y-39370000D03*
%TO.P,U2,42*%
%TO.N,Col0*%
X8890000Y-36830000D03*
%TO.P,U2,43*%
%TO.N,+5V*%
X8890000Y-34290000D03*
%TO.P,U2,44*%
%TO.N,Net-(U2-Pad44)*%
X3810000Y-67310000D03*
%TO.P,U2,45*%
%TO.N,Net-(U2-Pad45)*%
X3810000Y-69850000D03*
%TO.P,U2,46*%
%TO.N,Net-(U2-Pad46)*%
X3810000Y-72390000D03*
%TO.P,U2,47*%
%TO.N,Net-(U2-Pad47)*%
X3810000Y-74930000D03*
%TO.P,U2,48*%
%TO.N,Net-(U2-Pad48)*%
X1270000Y-67310000D03*
%TO.P,U2,49*%
%TO.N,Net-(U2-Pad49)*%
X1270000Y-69850000D03*
%TO.P,U2,50*%
%TO.N,Net-(U2-Pad50)*%
X1270000Y-72390000D03*
%TO.P,U2,51*%
%TO.N,Net-(U2-Pad51)*%
X1270000Y-74930000D03*
%TO.P,U2,52*%
%TO.N,Net-(U2-Pad52)*%
X-1270000Y-74930000D03*
%TD*%
D12*
%TO.P,SW14,1*%
%TO.N,Col0*%
X26957020Y-81280000D03*
%TO.P,SW14,2*%
%TO.N,Net-(D14-Pad2)*%
X20607020Y-83820000D03*
%TD*%
%TO.P,SW1,1*%
%TO.N,Col0*%
X26957020Y-57467500D03*
%TO.P,SW1,2*%
%TO.N,Net-(D1-Pad2)*%
X20607020Y-60007500D03*
%TD*%
D13*
%TO.P,D75,2*%
%TO.N,Net-(D75-Pad2)*%
X278130000Y-48260000D03*
D14*
%TO.P,D75,1*%
%TO.N,Row5*%
X278130000Y-40640000D03*
%TD*%
D13*
%TO.P,D74,2*%
%TO.N,Net-(D74-Pad2)*%
X262890000Y-48260000D03*
D14*
%TO.P,D74,1*%
%TO.N,Row5*%
X262890000Y-40640000D03*
%TD*%
D13*
%TO.P,D73,2*%
%TO.N,Net-(D73-Pad2)*%
X247650000Y-48260000D03*
D14*
%TO.P,D73,1*%
%TO.N,Row5*%
X247650000Y-40640000D03*
%TD*%
D13*
%TO.P,D72,2*%
%TO.N,Net-(D72-Pad2)*%
X217170000Y-48260000D03*
D14*
%TO.P,D72,1*%
%TO.N,Row5*%
X217170000Y-40640000D03*
%TD*%
D13*
%TO.P,D71,2*%
%TO.N,Net-(D71-Pad2)*%
X156210000Y-48260000D03*
D14*
%TO.P,D71,1*%
%TO.N,Row5*%
X156210000Y-40640000D03*
%TD*%
D13*
%TO.P,D70,2*%
%TO.N,Net-(D70-Pad2)*%
X95250000Y-48260000D03*
D14*
%TO.P,D70,1*%
%TO.N,Row5*%
X95250000Y-40640000D03*
%TD*%
D13*
%TO.P,D69,2*%
%TO.N,Net-(D69-Pad2)*%
X80010000Y-48260000D03*
D14*
%TO.P,D69,1*%
%TO.N,Row5*%
X80010000Y-40640000D03*
%TD*%
%TO.P,D68,1*%
%TO.N,Row5*%
X64770000Y-40640000D03*
D13*
%TO.P,D68,2*%
%TO.N,Net-(D68-Pad2)*%
X64770000Y-48260000D03*
%TD*%
%TO.P,D67,2*%
%TO.N,Net-(D67-Pad2)*%
X260350000Y-46990000D03*
D14*
%TO.P,D67,1*%
%TO.N,Row4*%
X260350000Y-39370000D03*
%TD*%
D13*
%TO.P,D66,2*%
%TO.N,Net-(D66-Pad2)*%
X232410000Y-48260000D03*
D14*
%TO.P,D66,1*%
%TO.N,Row4*%
X232410000Y-40640000D03*
%TD*%
D13*
%TO.P,D65,2*%
%TO.N,Net-(D65-Pad2)*%
X214630000Y-46990000D03*
D14*
%TO.P,D65,1*%
%TO.N,Row4*%
X214630000Y-39370000D03*
%TD*%
D13*
%TO.P,D64,2*%
%TO.N,Net-(D64-Pad2)*%
X201930000Y-48260000D03*
D14*
%TO.P,D64,1*%
%TO.N,Row4*%
X201930000Y-40640000D03*
%TD*%
D13*
%TO.P,D63,2*%
%TO.N,Net-(D63-Pad2)*%
X186690000Y-48260000D03*
D14*
%TO.P,D63,1*%
%TO.N,Row4*%
X186690000Y-40640000D03*
%TD*%
D13*
%TO.P,D62,2*%
%TO.N,Net-(D62-Pad2)*%
X171450000Y-48260000D03*
D14*
%TO.P,D62,1*%
%TO.N,Row4*%
X171450000Y-40640000D03*
%TD*%
D13*
%TO.P,D61,2*%
%TO.N,Net-(D61-Pad2)*%
X153670000Y-46990000D03*
D14*
%TO.P,D61,1*%
%TO.N,Row4*%
X153670000Y-39370000D03*
%TD*%
D13*
%TO.P,D60,2*%
%TO.N,Net-(D60-Pad2)*%
X140970000Y-48260000D03*
D14*
%TO.P,D60,1*%
%TO.N,Row4*%
X140970000Y-40640000D03*
%TD*%
D13*
%TO.P,D59,2*%
%TO.N,Net-(D59-Pad2)*%
X125730000Y-48260000D03*
D14*
%TO.P,D59,1*%
%TO.N,Row4*%
X125730000Y-40640000D03*
%TD*%
D13*
%TO.P,D58,2*%
%TO.N,Net-(D58-Pad2)*%
X110490000Y-48260000D03*
D14*
%TO.P,D58,1*%
%TO.N,Row4*%
X110490000Y-40640000D03*
%TD*%
D13*
%TO.P,D57,2*%
%TO.N,Net-(D57-Pad2)*%
X92710000Y-46990000D03*
D14*
%TO.P,D57,1*%
%TO.N,Row4*%
X92710000Y-39370000D03*
%TD*%
D13*
%TO.P,D56,2*%
%TO.N,Net-(D56-Pad2)*%
X77470000Y-46990000D03*
D14*
%TO.P,D56,1*%
%TO.N,Row4*%
X77470000Y-39370000D03*
%TD*%
D13*
%TO.P,D55,2*%
%TO.N,Net-(D55-Pad2)*%
X275590000Y-46990000D03*
D14*
%TO.P,D55,1*%
%TO.N,Row4*%
X275590000Y-39370000D03*
%TD*%
D13*
%TO.P,D54,2*%
%TO.N,Net-(D54-Pad2)*%
X257810000Y-45720000D03*
D14*
%TO.P,D54,1*%
%TO.N,Row3*%
X257810000Y-38100000D03*
%TD*%
D13*
%TO.P,D53,2*%
%TO.N,Net-(D53-Pad2)*%
X245110000Y-46990000D03*
D14*
%TO.P,D53,1*%
%TO.N,Row3*%
X245110000Y-39370000D03*
%TD*%
D13*
%TO.P,D52,2*%
%TO.N,Net-(D52-Pad2)*%
X229870000Y-46990000D03*
D14*
%TO.P,D52,1*%
%TO.N,Row3*%
X229870000Y-39370000D03*
%TD*%
D13*
%TO.P,D51,2*%
%TO.N,Net-(D51-Pad2)*%
X212090000Y-45720000D03*
D14*
%TO.P,D51,1*%
%TO.N,Row3*%
X212090000Y-38100000D03*
%TD*%
D13*
%TO.P,D50,2*%
%TO.N,Net-(D50-Pad2)*%
X199390000Y-46990000D03*
D14*
%TO.P,D50,1*%
%TO.N,Row3*%
X199390000Y-39370000D03*
%TD*%
D13*
%TO.P,D49,2*%
%TO.N,Net-(D49-Pad2)*%
X184150000Y-46990000D03*
D14*
%TO.P,D49,1*%
%TO.N,Row3*%
X184150000Y-39370000D03*
%TD*%
D13*
%TO.P,D48,2*%
%TO.N,Net-(D48-Pad2)*%
X168910000Y-46990000D03*
D14*
%TO.P,D48,1*%
%TO.N,Row3*%
X168910000Y-39370000D03*
%TD*%
D13*
%TO.P,D47,2*%
%TO.N,Net-(D47-Pad2)*%
X151130000Y-45720000D03*
D14*
%TO.P,D47,1*%
%TO.N,Row3*%
X151130000Y-38100000D03*
%TD*%
D13*
%TO.P,D46,2*%
%TO.N,Net-(D46-Pad2)*%
X138430000Y-46990000D03*
D14*
%TO.P,D46,1*%
%TO.N,Row3*%
X138430000Y-39370000D03*
%TD*%
D13*
%TO.P,D45,2*%
%TO.N,Net-(D45-Pad2)*%
X123190000Y-46990000D03*
D14*
%TO.P,D45,1*%
%TO.N,Row3*%
X123190000Y-39370000D03*
%TD*%
D13*
%TO.P,D44,2*%
%TO.N,Net-(D44-Pad2)*%
X107950000Y-46990000D03*
D14*
%TO.P,D44,1*%
%TO.N,Row3*%
X107950000Y-39370000D03*
%TD*%
D13*
%TO.P,D43,2*%
%TO.N,Net-(D43-Pad2)*%
X74930000Y-45720000D03*
D14*
%TO.P,D43,1*%
%TO.N,Row3*%
X74930000Y-38100000D03*
%TD*%
%TO.P,D42,1*%
%TO.N,Row3*%
X62230000Y-39370000D03*
D13*
%TO.P,D42,2*%
%TO.N,Net-(D42-Pad2)*%
X62230000Y-46990000D03*
%TD*%
%TO.P,D41,2*%
%TO.N,Net-(D41-Pad2)*%
X273050000Y-45720000D03*
D14*
%TO.P,D41,1*%
%TO.N,Row2*%
X273050000Y-38100000D03*
%TD*%
D13*
%TO.P,D40,2*%
%TO.N,Net-(D40-Pad2)*%
X255270000Y-44450000D03*
D14*
%TO.P,D40,1*%
%TO.N,Row2*%
X255270000Y-36830000D03*
%TD*%
D13*
%TO.P,D39,2*%
%TO.N,Net-(D39-Pad2)*%
X242570000Y-45720000D03*
D14*
%TO.P,D39,1*%
%TO.N,Row2*%
X242570000Y-38100000D03*
%TD*%
D13*
%TO.P,D38,2*%
%TO.N,Net-(D38-Pad2)*%
X227330000Y-45720000D03*
D14*
%TO.P,D38,1*%
%TO.N,Row2*%
X227330000Y-38100000D03*
%TD*%
D13*
%TO.P,D37,2*%
%TO.N,Net-(D37-Pad2)*%
X196850000Y-45720000D03*
D14*
%TO.P,D37,1*%
%TO.N,Row2*%
X196850000Y-38100000D03*
%TD*%
D13*
%TO.P,D36,2*%
%TO.N,Net-(D36-Pad2)*%
X194310000Y-44450000D03*
D14*
%TO.P,D36,1*%
%TO.N,Row2*%
X194310000Y-36830000D03*
%TD*%
D13*
%TO.P,D35,2*%
%TO.N,Net-(D35-Pad2)*%
X181610000Y-45720000D03*
D14*
%TO.P,D35,1*%
%TO.N,Row2*%
X181610000Y-38100000D03*
%TD*%
D13*
%TO.P,D34,2*%
%TO.N,Net-(D34-Pad2)*%
X166370000Y-45720000D03*
D14*
%TO.P,D34,1*%
%TO.N,Row2*%
X166370000Y-38100000D03*
%TD*%
D13*
%TO.P,D33,2*%
%TO.N,Net-(D33-Pad2)*%
X135890000Y-45720000D03*
D14*
%TO.P,D33,1*%
%TO.N,Row2*%
X135890000Y-38100000D03*
%TD*%
D13*
%TO.P,D32,2*%
%TO.N,Net-(D32-Pad2)*%
X120650000Y-45720000D03*
D14*
%TO.P,D32,1*%
%TO.N,Row2*%
X120650000Y-38100000D03*
%TD*%
D13*
%TO.P,D31,2*%
%TO.N,Net-(D31-Pad2)*%
X105410000Y-45720000D03*
D14*
%TO.P,D31,1*%
%TO.N,Row2*%
X105410000Y-38100000D03*
%TD*%
D13*
%TO.P,D30,2*%
%TO.N,Net-(D30-Pad2)*%
X90170000Y-45720000D03*
D14*
%TO.P,D30,1*%
%TO.N,Row2*%
X90170000Y-38100000D03*
%TD*%
D13*
%TO.P,D29,2*%
%TO.N,Net-(D29-Pad2)*%
X72390000Y-44196000D03*
D14*
%TO.P,D29,1*%
%TO.N,Row2*%
X72390000Y-36576000D03*
%TD*%
%TO.P,D28,1*%
%TO.N,Row2*%
X59690000Y-38100000D03*
D13*
%TO.P,D28,2*%
%TO.N,Net-(D28-Pad2)*%
X59690000Y-45720000D03*
%TD*%
%TO.P,D27,2*%
%TO.N,Net-(D27-Pad2)*%
X270510000Y-44450000D03*
D14*
%TO.P,D27,1*%
%TO.N,Row1*%
X270510000Y-36830000D03*
%TD*%
D13*
%TO.P,D26,2*%
%TO.N,Net-(D26-Pad2)*%
X240030000Y-44450000D03*
D14*
%TO.P,D26,1*%
%TO.N,Row1*%
X240030000Y-36830000D03*
%TD*%
D13*
%TO.P,D25,2*%
%TO.N,Net-(D25-Pad2)*%
X224790000Y-44450000D03*
D14*
%TO.P,D25,1*%
%TO.N,Row1*%
X224790000Y-36830000D03*
%TD*%
D13*
%TO.P,D24,2*%
%TO.N,Net-(D24-Pad2)*%
X209550000Y-44450000D03*
D14*
%TO.P,D24,1*%
%TO.N,Row1*%
X209550000Y-36830000D03*
%TD*%
D13*
%TO.P,D23,2*%
%TO.N,Net-(D23-Pad2)*%
X191770000Y-43180000D03*
D14*
%TO.P,D23,1*%
%TO.N,Row1*%
X191770000Y-35560000D03*
%TD*%
D13*
%TO.P,D22,2*%
%TO.N,Net-(D22-Pad2)*%
X179070000Y-44450000D03*
D14*
%TO.P,D22,1*%
%TO.N,Row1*%
X179070000Y-36830000D03*
%TD*%
D13*
%TO.P,D21,2*%
%TO.N,Net-(D21-Pad2)*%
X163830000Y-44450000D03*
D14*
%TO.P,D21,1*%
%TO.N,Row1*%
X163830000Y-36830000D03*
%TD*%
D13*
%TO.P,D20,2*%
%TO.N,Net-(D20-Pad2)*%
X148590000Y-44450000D03*
D14*
%TO.P,D20,1*%
%TO.N,Row1*%
X148590000Y-36830000D03*
%TD*%
D13*
%TO.P,D19,2*%
%TO.N,Net-(D19-Pad2)*%
X133350000Y-44450000D03*
D14*
%TO.P,D19,1*%
%TO.N,Row1*%
X133350000Y-36830000D03*
%TD*%
D13*
%TO.P,D18,2*%
%TO.N,Net-(D18-Pad2)*%
X118110000Y-44450000D03*
D14*
%TO.P,D18,1*%
%TO.N,Row1*%
X118110000Y-36830000D03*
%TD*%
D13*
%TO.P,D17,2*%
%TO.N,Net-(D17-Pad2)*%
X102870000Y-44450000D03*
D14*
%TO.P,D17,1*%
%TO.N,Row1*%
X102870000Y-36830000D03*
%TD*%
D13*
%TO.P,D16,2*%
%TO.N,Net-(D16-Pad2)*%
X87630000Y-44450000D03*
D14*
%TO.P,D16,1*%
%TO.N,Row1*%
X87630000Y-36830000D03*
%TD*%
D13*
%TO.P,D15,2*%
%TO.N,Net-(D15-Pad2)*%
X69850000Y-43180000D03*
D14*
%TO.P,D15,1*%
%TO.N,Row1*%
X69850000Y-35560000D03*
%TD*%
%TO.P,D14,1*%
%TO.N,Row1*%
X57150000Y-36830000D03*
D13*
%TO.P,D14,2*%
%TO.N,Net-(D14-Pad2)*%
X57150000Y-44450000D03*
%TD*%
%TO.P,D13,2*%
%TO.N,Net-(D13-Pad2)*%
X267970000Y-43180000D03*
D14*
%TO.P,D13,1*%
%TO.N,Row0*%
X267970000Y-35560000D03*
%TD*%
D13*
%TO.P,D12,2*%
%TO.N,Net-(D12-Pad2)*%
X252730000Y-43180000D03*
D14*
%TO.P,D12,1*%
%TO.N,Row0*%
X252730000Y-35560000D03*
%TD*%
D13*
%TO.P,D11,2*%
%TO.N,Net-(D11-Pad2)*%
X237490000Y-43180000D03*
D14*
%TO.P,D11,1*%
%TO.N,Row0*%
X237490000Y-35560000D03*
%TD*%
D13*
%TO.P,D10,2*%
%TO.N,Net-(D10-Pad2)*%
X222250000Y-43180000D03*
D14*
%TO.P,D10,1*%
%TO.N,Row0*%
X222250000Y-35560000D03*
%TD*%
D13*
%TO.P,D9,2*%
%TO.N,Net-(D9-Pad2)*%
X207010000Y-43180000D03*
D14*
%TO.P,D9,1*%
%TO.N,Row0*%
X207010000Y-35560000D03*
%TD*%
D13*
%TO.P,D8,2*%
%TO.N,Net-(D8-Pad2)*%
X176530000Y-43180000D03*
D14*
%TO.P,D8,1*%
%TO.N,Row0*%
X176530000Y-35560000D03*
%TD*%
D13*
%TO.P,D7,2*%
%TO.N,Net-(D7-Pad2)*%
X161290000Y-43180000D03*
D14*
%TO.P,D7,1*%
%TO.N,Row0*%
X161290000Y-35560000D03*
%TD*%
D13*
%TO.P,D6,2*%
%TO.N,Net-(D6-Pad2)*%
X146050000Y-43180000D03*
D14*
%TO.P,D6,1*%
%TO.N,Row0*%
X146050000Y-35560000D03*
%TD*%
D13*
%TO.P,D5,2*%
%TO.N,Net-(D5-Pad2)*%
X130810000Y-43180000D03*
D14*
%TO.P,D5,1*%
%TO.N,Row0*%
X130810000Y-35560000D03*
%TD*%
D13*
%TO.P,D4,2*%
%TO.N,Net-(D4-Pad2)*%
X115570000Y-43180000D03*
D14*
%TO.P,D4,1*%
%TO.N,Row0*%
X115570000Y-35560000D03*
%TD*%
D13*
%TO.P,D3,2*%
%TO.N,Net-(D3-Pad2)*%
X100330000Y-43180000D03*
D14*
%TO.P,D3,1*%
%TO.N,Row0*%
X100330000Y-35560000D03*
%TD*%
D13*
%TO.P,D2,2*%
%TO.N,Net-(D2-Pad2)*%
X85090000Y-43180000D03*
D14*
%TO.P,D2,1*%
%TO.N,Row0*%
X85090000Y-35560000D03*
%TD*%
%TO.P,D1,1*%
%TO.N,Row0*%
X54610000Y-35560000D03*
D13*
%TO.P,D1,2*%
%TO.N,Net-(D1-Pad2)*%
X54610000Y-43180000D03*
%TD*%
D12*
%TO.P,SW75,2*%
%TO.N,Net-(D75-Pad2)*%
X284988000Y-160020000D03*
%TO.P,SW75,1*%
%TO.N,Col14*%
X291338000Y-157480000D03*
%TD*%
%TO.P,SW74,2*%
%TO.N,Net-(D74-Pad2)*%
X261175500Y-160020000D03*
%TO.P,SW74,1*%
%TO.N,Col13*%
X267525500Y-157480000D03*
%TD*%
%TO.P,SW73,2*%
%TO.N,Net-(D73-Pad2)*%
X237363000Y-160020000D03*
%TO.P,SW73,1*%
%TO.N,Col11*%
X243713000Y-157480000D03*
%TD*%
%TO.P,SW72,2*%
%TO.N,Net-(D72-Pad2)*%
X213550500Y-160020000D03*
%TO.P,SW72,1*%
%TO.N,Col10*%
X219900500Y-157480000D03*
%TD*%
%TO.P,SW2,1*%
%TO.N,Col2*%
X65057020Y-57467500D03*
%TO.P,SW2,2*%
%TO.N,Net-(D2-Pad2)*%
X58707020Y-60007500D03*
%TD*%
%TO.P,SW3,1*%
%TO.N,Col3*%
X84107020Y-57467500D03*
%TO.P,SW3,2*%
%TO.N,Net-(D3-Pad2)*%
X77757020Y-60007500D03*
%TD*%
%TO.P,SW4,2*%
%TO.N,Net-(D4-Pad2)*%
X96807020Y-60007500D03*
%TO.P,SW4,1*%
%TO.N,Col4*%
X103157020Y-57467500D03*
%TD*%
%TO.P,SW5,1*%
%TO.N,Col5*%
X122207020Y-57467500D03*
%TO.P,SW5,2*%
%TO.N,Net-(D5-Pad2)*%
X115857020Y-60007500D03*
%TD*%
%TO.P,SW6,2*%
%TO.N,Net-(D6-Pad2)*%
X144432020Y-60007500D03*
%TO.P,SW6,1*%
%TO.N,Col7*%
X150782020Y-57467500D03*
%TD*%
%TO.P,SW7,1*%
%TO.N,Col8*%
X169832020Y-57467500D03*
%TO.P,SW7,2*%
%TO.N,Net-(D7-Pad2)*%
X163482020Y-60007500D03*
%TD*%
%TO.P,SW8,2*%
%TO.N,Net-(D8-Pad2)*%
X182532020Y-60007500D03*
%TO.P,SW8,1*%
%TO.N,Col9*%
X188882020Y-57467500D03*
%TD*%
%TO.P,SW9,2*%
%TO.N,Net-(D9-Pad2)*%
X201582020Y-60007500D03*
%TO.P,SW9,1*%
%TO.N,Col10*%
X207932020Y-57467500D03*
%TD*%
%TO.P,SW10,2*%
%TO.N,Net-(D10-Pad2)*%
X230157020Y-60007500D03*
%TO.P,SW10,1*%
%TO.N,Col11*%
X236507020Y-57467500D03*
%TD*%
%TO.P,SW11,1*%
%TO.N,Col12*%
X255557020Y-57467500D03*
%TO.P,SW11,2*%
%TO.N,Net-(D11-Pad2)*%
X249207020Y-60007500D03*
%TD*%
%TO.P,SW12,2*%
%TO.N,Net-(D12-Pad2)*%
X268257020Y-60007500D03*
%TO.P,SW12,1*%
%TO.N,Col13*%
X274607020Y-57467500D03*
%TD*%
%TO.P,SW13,1*%
%TO.N,Col14*%
X293657020Y-57467500D03*
%TO.P,SW13,2*%
%TO.N,Net-(D13-Pad2)*%
X287307020Y-60007500D03*
%TD*%
%TO.P,SW15,2*%
%TO.N,Net-(D15-Pad2)*%
X39657020Y-83820000D03*
%TO.P,SW15,1*%
%TO.N,Col1*%
X46007020Y-81280000D03*
%TD*%
%TO.P,SW16,2*%
%TO.N,Net-(D16-Pad2)*%
X58707020Y-83820000D03*
%TO.P,SW16,1*%
%TO.N,Col2*%
X65057020Y-81280000D03*
%TD*%
%TO.P,SW17,2*%
%TO.N,Net-(D17-Pad2)*%
X77757020Y-83820000D03*
%TO.P,SW17,1*%
%TO.N,Col3*%
X84107020Y-81280000D03*
%TD*%
%TO.P,SW18,1*%
%TO.N,Col4*%
X103157020Y-81280000D03*
%TO.P,SW18,2*%
%TO.N,Net-(D18-Pad2)*%
X96807020Y-83820000D03*
%TD*%
%TO.P,SW19,2*%
%TO.N,Net-(D19-Pad2)*%
X115857020Y-83820000D03*
%TO.P,SW19,1*%
%TO.N,Col5*%
X122207020Y-81280000D03*
%TD*%
%TO.P,SW20,1*%
%TO.N,Col6*%
X141257020Y-81280000D03*
%TO.P,SW20,2*%
%TO.N,Net-(D20-Pad2)*%
X134907020Y-83820000D03*
%TD*%
%TO.P,SW21,1*%
%TO.N,Col7*%
X160307020Y-81280000D03*
%TO.P,SW21,2*%
%TO.N,Net-(D21-Pad2)*%
X153957020Y-83820000D03*
%TD*%
%TO.P,SW22,2*%
%TO.N,Net-(D22-Pad2)*%
X173007020Y-83820000D03*
%TO.P,SW22,1*%
%TO.N,Col8*%
X179357020Y-81280000D03*
%TD*%
%TO.P,SW23,2*%
%TO.N,Net-(D23-Pad2)*%
X192057020Y-83820000D03*
%TO.P,SW23,1*%
%TO.N,Col9*%
X198407020Y-81280000D03*
%TD*%
%TO.P,SW24,1*%
%TO.N,Col10*%
X217457020Y-81280000D03*
%TO.P,SW24,2*%
%TO.N,Net-(D24-Pad2)*%
X211107020Y-83820000D03*
%TD*%
%TO.P,SW25,1*%
%TO.N,Col11*%
X236507020Y-81280000D03*
%TO.P,SW25,2*%
%TO.N,Net-(D25-Pad2)*%
X230157020Y-83820000D03*
%TD*%
%TO.P,SW26,1*%
%TO.N,Col12*%
X255557020Y-81280000D03*
%TO.P,SW26,2*%
%TO.N,Net-(D26-Pad2)*%
X249207020Y-83820000D03*
%TD*%
%TO.P,SW27,1*%
%TO.N,Col14*%
X284190440Y-81280000D03*
%TO.P,SW27,2*%
%TO.N,Net-(D27-Pad2)*%
X277840440Y-83820000D03*
%TD*%
%TO.P,SW28,1*%
%TO.N,Col0*%
X31719520Y-100330000D03*
%TO.P,SW28,2*%
%TO.N,Net-(D28-Pad2)*%
X25369520Y-102870000D03*
%TD*%
%TO.P,SW29,1*%
%TO.N,Col2*%
X55532020Y-100330000D03*
%TO.P,SW29,2*%
%TO.N,Net-(D29-Pad2)*%
X49182020Y-102870000D03*
%TD*%
%TO.P,SW30,2*%
%TO.N,Net-(D30-Pad2)*%
X68232020Y-102870000D03*
%TO.P,SW30,1*%
%TO.N,Col3*%
X74582020Y-100330000D03*
%TD*%
%TO.P,SW31,2*%
%TO.N,Net-(D31-Pad2)*%
X87282020Y-102870000D03*
%TO.P,SW31,1*%
%TO.N,Col4*%
X93632020Y-100330000D03*
%TD*%
%TO.P,SW32,2*%
%TO.N,Net-(D32-Pad2)*%
X106332020Y-102870000D03*
%TO.P,SW32,1*%
%TO.N,Col5*%
X112682020Y-100330000D03*
%TD*%
%TO.P,SW33,2*%
%TO.N,Net-(D33-Pad2)*%
X125382020Y-102870000D03*
%TO.P,SW33,1*%
%TO.N,Col6*%
X131732020Y-100330000D03*
%TD*%
%TO.P,SW34,2*%
%TO.N,Net-(D34-Pad2)*%
X144432020Y-102870000D03*
%TO.P,SW34,1*%
%TO.N,Col7*%
X150782020Y-100330000D03*
%TD*%
%TO.P,SW35,1*%
%TO.N,Col8*%
X169832020Y-100330000D03*
%TO.P,SW35,2*%
%TO.N,Net-(D35-Pad2)*%
X163482020Y-102870000D03*
%TD*%
%TO.P,SW36,2*%
%TO.N,Net-(D36-Pad2)*%
X182532020Y-102870000D03*
%TO.P,SW36,1*%
%TO.N,Col9*%
X188882020Y-100330000D03*
%TD*%
%TO.P,SW37,2*%
%TO.N,Net-(D37-Pad2)*%
X201582020Y-102870000D03*
%TO.P,SW37,1*%
%TO.N,Col10*%
X207932020Y-100330000D03*
%TD*%
%TO.P,SW38,1*%
%TO.N,Col11*%
X226982020Y-100330000D03*
%TO.P,SW38,2*%
%TO.N,Net-(D38-Pad2)*%
X220632020Y-102870000D03*
%TD*%
%TO.P,SW39,1*%
%TO.N,Col12*%
X246032020Y-100330000D03*
%TO.P,SW39,2*%
%TO.N,Net-(D39-Pad2)*%
X239682020Y-102870000D03*
%TD*%
%TO.P,SW40,1*%
%TO.N,Col13*%
X265082020Y-100330000D03*
%TO.P,SW40,2*%
%TO.N,Net-(D40-Pad2)*%
X258732020Y-102870000D03*
%TD*%
%TO.P,SW41,2*%
%TO.N,Net-(D41-Pad2)*%
X282605480Y-102872540D03*
%TO.P,SW41,1*%
%TO.N,Col14*%
X288955480Y-100332540D03*
%TD*%
%TO.P,SW42,1*%
%TO.N,Col0*%
X34099500Y-119380000D03*
%TO.P,SW42,2*%
%TO.N,Net-(D42-Pad2)*%
X27749500Y-121920000D03*
%TD*%
%TO.P,SW43,2*%
%TO.N,Net-(D43-Pad2)*%
X54038500Y-121920000D03*
%TO.P,SW43,1*%
%TO.N,Col2*%
X60388500Y-119380000D03*
%TD*%
%TO.P,SW44,1*%
%TO.N,Col3*%
X79438500Y-119380000D03*
%TO.P,SW44,2*%
%TO.N,Net-(D44-Pad2)*%
X73088500Y-121920000D03*
%TD*%
%TO.P,SW45,1*%
%TO.N,Col4*%
X98488500Y-119380000D03*
%TO.P,SW45,2*%
%TO.N,Net-(D45-Pad2)*%
X92138500Y-121920000D03*
%TD*%
%TO.P,SW46,1*%
%TO.N,Col5*%
X117538500Y-119380000D03*
%TO.P,SW46,2*%
%TO.N,Net-(D46-Pad2)*%
X111188500Y-121920000D03*
%TD*%
%TO.P,SW47,1*%
%TO.N,Col6*%
X136588500Y-119380000D03*
%TO.P,SW47,2*%
%TO.N,Net-(D47-Pad2)*%
X130238500Y-121920000D03*
%TD*%
%TO.P,SW48,2*%
%TO.N,Net-(D48-Pad2)*%
X149288500Y-121920000D03*
%TO.P,SW48,1*%
%TO.N,Col7*%
X155638500Y-119380000D03*
%TD*%
%TO.P,SW49,2*%
%TO.N,Net-(D49-Pad2)*%
X168338500Y-121920000D03*
%TO.P,SW49,1*%
%TO.N,Col8*%
X174688500Y-119380000D03*
%TD*%
%TO.P,SW50,1*%
%TO.N,Col9*%
X193738500Y-119380000D03*
%TO.P,SW50,2*%
%TO.N,Net-(D50-Pad2)*%
X187388500Y-121920000D03*
%TD*%
%TO.P,SW51,1*%
%TO.N,Col10*%
X212788500Y-119380000D03*
%TO.P,SW51,2*%
%TO.N,Net-(D51-Pad2)*%
X206438500Y-121920000D03*
%TD*%
%TO.P,SW52,2*%
%TO.N,Net-(D52-Pad2)*%
X225488500Y-121920000D03*
%TO.P,SW52,1*%
%TO.N,Col11*%
X231838500Y-119380000D03*
%TD*%
%TO.P,SW53,2*%
%TO.N,Net-(D53-Pad2)*%
X244538500Y-121920000D03*
%TO.P,SW53,1*%
%TO.N,Col12*%
X250888500Y-119380000D03*
%TD*%
%TO.P,SW54,2*%
%TO.N,Net-(D54-Pad2)*%
X275463000Y-121920000D03*
%TO.P,SW54,1*%
%TO.N,Col13*%
X281813000Y-119380000D03*
%TD*%
D15*
%TO.P,SW55,S1*%
%TO.N,Net-(D55-Pad2)*%
X293330000Y-34910000D03*
%TO.P,SW55,S2*%
%TO.N,Col14*%
X288330000Y-34910000D03*
D16*
%TO.P,SW55,*%
%TO.N,*%
X296430000Y-41910000D03*
X285230000Y-41910000D03*
D15*
%TO.P,SW55,B*%
%TO.N,EncB*%
X293330000Y-49410000D03*
%TO.P,SW55,C*%
%TO.N,GND*%
X290830000Y-49410000D03*
D17*
%TO.P,SW55,A*%
%TO.N,EncA*%
X288330000Y-49410000D03*
%TD*%
D12*
%TO.P,SW56,1*%
%TO.N,Col1*%
X38862000Y-138430000D03*
%TO.P,SW56,2*%
%TO.N,Net-(D56-Pad2)*%
X32512000Y-140970000D03*
%TD*%
%TO.P,SW57,2*%
%TO.N,Net-(D57-Pad2)*%
X63500000Y-140970000D03*
%TO.P,SW57,1*%
%TO.N,Col2*%
X69850000Y-138430000D03*
%TD*%
%TO.P,SW58,1*%
%TO.N,Col3*%
X88900000Y-138430000D03*
%TO.P,SW58,2*%
%TO.N,Net-(D58-Pad2)*%
X82550000Y-140970000D03*
%TD*%
%TO.P,SW59,1*%
%TO.N,Col4*%
X107950000Y-138430000D03*
%TO.P,SW59,2*%
%TO.N,Net-(D59-Pad2)*%
X101600000Y-140970000D03*
%TD*%
%TO.P,SW60,2*%
%TO.N,Net-(D60-Pad2)*%
X120650000Y-140970000D03*
%TO.P,SW60,1*%
%TO.N,Col5*%
X127000000Y-138430000D03*
%TD*%
%TO.P,SW61,2*%
%TO.N,Net-(D61-Pad2)*%
X139700000Y-140970000D03*
%TO.P,SW61,1*%
%TO.N,Col6*%
X146050000Y-138430000D03*
%TD*%
%TO.P,SW62,1*%
%TO.N,Col7*%
X165100000Y-138430000D03*
%TO.P,SW62,2*%
%TO.N,Net-(D62-Pad2)*%
X158750000Y-140970000D03*
%TD*%
%TO.P,SW63,2*%
%TO.N,Net-(D63-Pad2)*%
X177800000Y-140970000D03*
%TO.P,SW63,1*%
%TO.N,Col8*%
X184150000Y-138430000D03*
%TD*%
%TO.P,SW64,1*%
%TO.N,Col9*%
X203200000Y-138430000D03*
%TO.P,SW64,2*%
%TO.N,Net-(D64-Pad2)*%
X196850000Y-140970000D03*
%TD*%
%TO.P,SW65,1*%
%TO.N,Col10*%
X222250000Y-138430000D03*
%TO.P,SW65,2*%
%TO.N,Net-(D65-Pad2)*%
X215900000Y-140970000D03*
%TD*%
%TO.P,SW66,2*%
%TO.N,Net-(D66-Pad2)*%
X234950000Y-140970000D03*
%TO.P,SW66,1*%
%TO.N,Col11*%
X241300000Y-138430000D03*
%TD*%
%TO.P,SW67,1*%
%TO.N,Col13*%
X277050500Y-138430000D03*
%TO.P,SW67,2*%
%TO.N,Net-(D67-Pad2)*%
X270700500Y-140970000D03*
%TD*%
%TO.P,SW68,1*%
%TO.N,Col0*%
X29337000Y-157480000D03*
%TO.P,SW68,2*%
%TO.N,Net-(D68-Pad2)*%
X22987000Y-160020000D03*
%TD*%
%TO.P,SW69,2*%
%TO.N,Net-(D69-Pad2)*%
X46799500Y-160020000D03*
%TO.P,SW69,1*%
%TO.N,Col1*%
X53149500Y-157480000D03*
%TD*%
%TO.P,SW70,1*%
%TO.N,Col3*%
X76962000Y-157480000D03*
%TO.P,SW70,2*%
%TO.N,Net-(D70-Pad2)*%
X70612000Y-160020000D03*
%TD*%
%TO.P,SW71,1*%
%TO.N,Col6*%
X148399500Y-157480000D03*
%TO.P,SW71,2*%
%TO.N,Net-(D71-Pad2)*%
X142049500Y-160020000D03*
%TD*%
D15*
%TO.P,SW76,2*%
%TO.N,GND*%
X-1007500Y-85661500D03*
%TO.P,SW76,1*%
%TO.N,Reset*%
X3492500Y-85661500D03*
%TO.P,SW76,2*%
%TO.N,GND*%
X-1007500Y-92161500D03*
%TO.P,SW76,1*%
%TO.N,Reset*%
X3492500Y-92161500D03*
%TD*%
D18*
%TO.P,U1,1*%
%TO.N,SDA*%
X15240000Y-38100000D03*
%TO.P,U1,2*%
%TO.N,SCL*%
X15240000Y-40640000D03*
%TO.P,U1,3*%
%TO.N,+5V*%
X15240000Y-43180000D03*
%TO.P,U1,4*%
%TO.N,GND*%
X15240000Y-45720000D03*
%TD*%
D19*
%TO.N,Row4*%
X67310000Y-41910000D03*
%TD*%
D20*
%TO.N,Row0*%
X-6350000Y-64770000D02*
X-3175000Y-67945000D01*
X-3175000Y-67945000D02*
X-3175000Y-86995000D01*
X-3175000Y-86995000D02*
X-1905000Y-88265000D01*
X-1905000Y-88265000D02*
X6350000Y-88265000D01*
X6350000Y-88265000D02*
X12065000Y-82550000D01*
X12065000Y-82550000D02*
X12065000Y-76200000D01*
X12065000Y-76200000D02*
X21590000Y-66675000D01*
X21590000Y-66675000D02*
X25400000Y-66675000D01*
X25400000Y-66675000D02*
X52070000Y-40005000D01*
X52070000Y-38100000D02*
X54610000Y-35560000D01*
X52070000Y-40005000D02*
X52070000Y-38100000D01*
%TO.N,Row1*%
X69850000Y-35560000D02*
X70485000Y-35560000D01*
X70485000Y-35560000D02*
X71120000Y-34925000D01*
X71120000Y-34925000D02*
X80010000Y-34925000D01*
X81915000Y-36830000D02*
X87630000Y-36830000D01*
X80010000Y-34925000D02*
X81915000Y-36830000D01*
X191770000Y-35560000D02*
X201295000Y-35560000D01*
X202565000Y-36830000D02*
X209550000Y-36830000D01*
X201295000Y-35560000D02*
X202565000Y-36830000D01*
X12700000Y-76835000D02*
X22225000Y-67310000D01*
X6536401Y-88715009D02*
X12700000Y-82551410D01*
X6534990Y-88715010D02*
X6536401Y-88715009D01*
X22225000Y-67310000D02*
X26670000Y-67310000D01*
X-1906410Y-88900000D02*
X6350000Y-88900000D01*
X-3810000Y-86996410D02*
X-1906410Y-88900000D01*
X26670000Y-67310000D02*
X57150000Y-36830000D01*
X-3810000Y-69850000D02*
X-3810000Y-86996410D01*
X12700000Y-82551410D02*
X12700000Y-76835000D01*
X6350000Y-88900000D02*
X6534990Y-88715010D01*
X-6350000Y-67310000D02*
X-3810000Y-69850000D01*
X260350000Y-36830000D02*
X270510000Y-36830000D01*
X259080000Y-35560000D02*
X260350000Y-36830000D01*
X255270000Y-35560000D02*
X259080000Y-35560000D01*
X254000000Y-34290000D02*
X255270000Y-35560000D01*
X251460000Y-34290000D02*
X254000000Y-34290000D01*
X248920000Y-36830000D02*
X251460000Y-34290000D01*
X240030000Y-36830000D02*
X248920000Y-36830000D01*
%TO.N,Row2*%
X196850000Y-38100000D02*
X207010000Y-38100000D01*
X207010000Y-38100000D02*
X211455000Y-42545000D01*
X211455000Y-42545000D02*
X219075000Y-42545000D01*
X219075000Y-42545000D02*
X223520000Y-38100000D01*
X223520000Y-38100000D02*
X227330000Y-38100000D01*
X135890000Y-38100000D02*
X146685000Y-38100000D01*
X146685000Y-38100000D02*
X151130000Y-42545000D01*
X151130000Y-42545000D02*
X157480000Y-42545000D01*
X161925000Y-38100000D02*
X166370000Y-38100000D01*
X157480000Y-42545000D02*
X161925000Y-38100000D01*
%TO.N,Row3*%
X74930000Y-38100000D02*
X83185000Y-38100000D01*
X83185000Y-38100000D02*
X86995000Y-41910000D01*
X86995000Y-41910000D02*
X97790000Y-41910000D01*
X100330000Y-39370000D02*
X107950000Y-39370000D01*
X97790000Y-41910000D02*
X100330000Y-39370000D01*
%TO.N,Row4*%
X232410000Y-40640000D02*
X243205000Y-40640000D01*
X243205000Y-40640000D02*
X244475000Y-41910000D01*
X244475000Y-41910000D02*
X250190000Y-41910000D01*
X252730000Y-39370000D02*
X260350000Y-39370000D01*
X250190000Y-41910000D02*
X252730000Y-39370000D01*
X67310000Y-41910000D02*
X69850000Y-39370000D01*
X69850000Y-39370000D02*
X77470000Y-39370000D01*
%TO.N,Row5*%
X54729499Y-40520501D02*
X64650501Y-40520501D01*
X64650501Y-40520501D02*
X64770000Y-40640000D01*
X27305000Y-67945000D02*
X54729499Y-40520501D01*
X22860000Y-67945000D02*
X27305000Y-67945000D01*
X13335000Y-77470000D02*
X22860000Y-67945000D01*
X6352820Y-89535000D02*
X13335000Y-82552820D01*
X-1907820Y-89535000D02*
X6352820Y-89535000D01*
X-4260009Y-87182811D02*
X-1907820Y-89535000D01*
X-4260010Y-87179990D02*
X-4260009Y-87182811D01*
X-4445000Y-86995000D02*
X-4260010Y-87179990D01*
X13335000Y-82552820D02*
X13335000Y-77470000D01*
X-4445000Y-79375000D02*
X-4445000Y-86995000D01*
X-6350000Y-77470000D02*
X-4445000Y-79375000D01*
%TO.N,EncB*%
X297815000Y-163195000D02*
X297815000Y-53895000D01*
X290830000Y-170180000D02*
X297815000Y-163195000D01*
X19685000Y-170180000D02*
X290830000Y-170180000D01*
X297815000Y-53895000D02*
X293330000Y-49410000D01*
X-6350000Y-144145000D02*
X19685000Y-170180000D01*
X-6350000Y-82550000D02*
X-6350000Y-144145000D01*
%TO.N,GND*%
X8890000Y-59690000D02*
X10160000Y-58420000D01*
X10160000Y-50800000D02*
X15240000Y-45720000D01*
X10160000Y-58420000D02*
X10160000Y-50800000D01*
%TO.N,EncA*%
X-6350000Y-80010000D02*
X-5080000Y-81280000D01*
X-5080000Y-81280000D02*
X-5080000Y-144145000D01*
X-5080000Y-144145000D02*
X0Y-149225000D01*
X0Y-149225000D02*
X9525000Y-158750000D01*
X9525000Y-158750000D02*
X10160000Y-159385000D01*
X10160000Y-159385000D02*
X19685000Y-168910000D01*
X19685000Y-168910000D02*
X20320000Y-169545000D01*
X20320000Y-169545000D02*
X83820000Y-169545000D01*
X83820000Y-169545000D02*
X90170000Y-169545000D01*
X90170000Y-169545000D02*
X139065000Y-169545000D01*
X139065000Y-169545000D02*
X194945000Y-169545000D01*
X194945000Y-169545000D02*
X223520000Y-169545000D01*
X223520000Y-169545000D02*
X290195000Y-169545000D01*
X290195000Y-169545000D02*
X290830000Y-168910000D01*
X290830000Y-168910000D02*
X295910000Y-163830000D01*
X295910000Y-163830000D02*
X297180000Y-162560000D01*
X297180000Y-162560000D02*
X297180000Y-146050000D01*
X297180000Y-146050000D02*
X297180000Y-115570000D01*
X288330000Y-49410000D02*
X294165000Y-55245000D01*
X294165000Y-55245000D02*
X295910000Y-55245000D01*
X295910000Y-55245000D02*
X297180000Y-56515000D01*
X297180000Y-67945000D02*
X297180000Y-92710000D01*
X297180000Y-56515000D02*
X297180000Y-67945000D01*
X297180000Y-92710000D02*
X297180000Y-92075000D01*
X297180000Y-115570000D02*
X297180000Y-92710000D01*
%TO.N,+5V*%
X12700000Y-40640000D02*
X15240000Y-43180000D01*
X12700000Y-38100000D02*
X12700000Y-40640000D01*
X8890000Y-34290000D02*
X12700000Y-38100000D01*
%TD*%
M02*
